<?xml version="1.0" encoding="UTF-8"?>
<!DOCTYPE svg PUBLIC "-//W3C//DTD SVG 1.1//EN" "http://www.w3.org/Graphics/SVG/1.1/DTD/svg11.dtd">
<svg xmlns="http://www.w3.org/2000/svg" version="1.1" width="40px" height="43px" style="shape-rendering:geometricPrecision; text-rendering:geometricPrecision; image-rendering:optimizeQuality; fill-rule:evenodd; clip-rule:evenodd" xmlns:xlink="http://www.w3.org/1999/xlink">
<g><path style="opacity:0.858" fill="#fefffe" d="M 39.5,21.5 C 39.5,22.1667 39.5,22.8333 39.5,23.5C 29.391,29.0577 19.391,34.8911 9.5,41C 7.86586,41.4935 6.19919,41.6602 4.5,41.5C 4.5,28.1667 4.5,14.8333 4.5,1.5C 5.87344,1.34332 7.20677,1.50999 8.5,2C 19.271,8.03855 29.6044,14.5385 39.5,21.5 Z M 8.5,7.5 C 16.3413,11.9188 24.008,16.5854 31.5,21.5C 24.084,26.2919 16.584,30.9586 9,35.5C 8.50021,26.1726 8.33355,16.8393 8.5,7.5 Z"/></g>
</svg>
