<?xml version="1.0" encoding="UTF-8"?>
<!DOCTYPE svg PUBLIC "-//W3C//DTD SVG 1.1//EN" "http://www.w3.org/Graphics/SVG/1.1/DTD/svg11.dtd">
<svg xmlns="http://www.w3.org/2000/svg" version="1.1" width="100px" height="100px" style="shape-rendering:geometricPrecision; text-rendering:geometricPrecision; image-rendering:optimizeQuality; fill-rule:evenodd; clip-rule:evenodd" xmlns:xlink="http://www.w3.org/1999/xlink">
<g><path style="opacity:0.865" fill="#fefffe" d="M 31.5,32.5 C 43.7667,31.6645 48.6001,37.3312 46,49.5C 41.5,56.6667 35.6667,62.5 28.5,67C 26.5,67.6667 24.5,67.6667 22.5,67C 21.2528,65.5064 21.2528,64.0064 22.5,62.5C 28.3572,58.8096 33.0239,53.9763 36.5,48C 28.2816,44.7639 26.615,39.5973 31.5,32.5 Z"/></g>
<g><path style="opacity:0.858" fill="#fefffe" d="M 55.5,32.5 C 68.5999,31.7707 73.4332,37.7707 70,50.5C 65.7663,57.6995 59.933,63.1995 52.5,67C 50.5,67.6667 48.5,67.6667 46.5,67C 45.4829,65.9505 45.3162,64.7839 46,63.5C 52.3596,59.9738 57.1929,54.9738 60.5,48.5C 58.4622,46.7236 56.2955,45.0569 54,43.5C 51.7706,39.4286 52.2706,35.762 55.5,32.5 Z"/></g>
</svg>
